<?xml version="1.0" encoding="UTF-8"?>
<svg width="14px" height="14px" viewBox="0 0 14 14" version="1.1" xmlns="http://www.w3.org/2000/svg" xmlns:xlink="http://www.w3.org/1999/xlink">
    <title>straw_sel</title>
    <g id="编辑页面/图标" stroke="none" stroke-width="1" fill="none" fill-rule="evenodd">
        <g id="编组" fill="#249DFF">
            <path d="M10.2386574,1.35301412 C10.8970687,0.848708226 11.8346813,0.884730079 12.453208,1.46107972 C13.147359,2.10790186 13.185731,3.19497052 12.5389143,3.88912222 L12.5389143,3.88912222 L12.3946497,4.01837154 C12.195884,4.18279525 11.9721384,4.31515078 11.731477,4.41023467 L11.731477,4.41023467 L11.6688558,4.44230995 C11.628548,4.46619736 11.5912472,4.49498721 11.5578315,4.52808328 C11.3331263,4.75063986 11.3313842,5.11321888 11.5539407,5.33792424 L11.5539407,5.33792424 L11.93189,5.71587355 L11.1187259,6.52331072 L10.7178701,6.11672933 L4.38436031,12.4788806 L2.32854956,12.4788806 L1.80743718,13 L1,12.1925558 L1.52111238,11.6714435 L1.52111238,9.64426075 L7.88326368,3.28210946 L7.47668229,2.88125367 L8.28411946,2.06808955 L8.66206878,2.44603886 C8.71219256,2.49568296 8.77105777,2.53563808 8.83569998,2.56389194 C9.12549423,2.69055462 9.46309934,2.55831128 9.58976256,2.26851703 L9.58976256,2.26851703 L9.66798281,2.09131883 C9.78137744,1.85961967 9.93074237,1.64685267 10.1108749,1.46107984 L10.1108749,1.46107984 Z M8.28412182,3.68869095 L2.09376567,9.8790471 L2.09376567,11.6714476 L2.32855192,11.9062338 L4.12095239,11.9062338 L10.3113045,5.71587365 L8.28412182,3.68869095 Z M6.17104558,9.04298053 L3.88043919,11.3335869 L2.66642062,11.3335869 L2.66642062,10.1195684 L3.74300307,9.04298053 L6.17104558,9.04298053 Z" id="形状结合备份"></path>
        </g>
    </g>
</svg>